<?xml version="1.0" encoding="UTF-8" standalone="no"?>
<svg
   xmlns:dc="http://purl.org/dc/elements/1.1/"
   xmlns:cc="http://creativecommons.org/ns#"
   xmlns:rdf="http://www.w3.org/1999/02/22-rdf-syntax-ns#"
   xmlns:svg="http://www.w3.org/2000/svg"
   xmlns="http://www.w3.org/2000/svg"
   xmlns:sodipodi="http://sodipodi.sourceforge.net/DTD/sodipodi-0.dtd"
   xmlns:inkscape="http://www.inkscape.org/namespaces/inkscape"
   version="1.0"
   width="1700.000000pt"
   height="588.000000pt"
   viewBox="0 0 1700.000000 588.000000"
   preserveAspectRatio="xMidYMid meet"
   id="svg3346"
   inkscape:version="0.91 r13725"
   sodipodi:docname="Molecule-colors.svg">
  <defs
     id="defs3370" />
  <sodipodi:namedview
     pagecolor="#ffffff"
     bordercolor="#666666"
     borderopacity="1"
     objecttolerance="10"
     gridtolerance="10"
     guidetolerance="10"
     inkscape:pageopacity="0"
     inkscape:pageshadow="2"
     inkscape:window-width="1920"
     inkscape:window-height="1027"
     id="namedview3368"
     showgrid="false"
     inkscape:zoom="0.54776471"
     inkscape:cx="1073.8434"
     inkscape:cy="304.78365"
     inkscape:window-x="1912"
     inkscape:window-y="-8"
     inkscape:window-maximized="1"
     inkscape:current-layer="svg3346" />
  <metadata
     id="metadata3348">
Created by potrace 1.13, written by Peter Selinger 2001-2015
<rdf:RDF>
  <cc:Work
     rdf:about="">
    <dc:format>image/svg+xml</dc:format>
    <dc:type
       rdf:resource="http://purl.org/dc/dcmitype/StillImage" />
    <dc:title></dc:title>
  </cc:Work>
</rdf:RDF>
</metadata>
  <g
     transform="translate(0.000000,588.000000) scale(0.100000,-0.100000)"
     fill="#000000"
     stroke="none"
     id="g3350"
     style="fill:#2090b5;fill-opacity:1">
    <path
       d="M5003 5856 c-169 -55 -289 -178 -349 -356 -28 -85 -25 -225 8 -317 47 -131 148 -245 271 -304 l47 -23 0 -366 0 -366 -99 -11 c-128 -16 -215 -45 -318 -108 -118 -72 -204 -146 -294 -254 -90 -108 -161 -238 -188 -344 -28 -108 -45 -329 -37 -487 12 -264 47 -392 148 -548 65 -99 231 -265 330 -330 177 -115 312 -145 638 -145 222 0 365 16 461 53 30 11 57 20 60 20 4 0 59 -85 123 -189 l115 -189 -43 -65 c-98 -147 -125 -323 -73 -475 l15 -43 -67 -52 c-36 -29 -105 -83 -152 -120 l-87 -67 -53 24 c-297 135 -620 -88 -596 -409 20 -267 282 -445 538 -365 207 64 333 277 285 483 -9 38 -16 72 -16 77 0 7 100 87 277 223 9 6 31 -3 69 -28 149 -99 369 -113 527 -34 262 132 368 449 240 717 -36 75 -159 200 -233 235 -94 45 -173 60 -281 54 l-96 -6 -122 199 -122 200 57 57 c234 238 305 452 291 883 -9 291 -40 409 -151 575 -113 170 -316 343 -479 408 -67 27 -211 57 -273 57 l-34 0 0 368 0 367 65 33 c217 113 326 355 266 592 -26 102 -67 175 -142 250 -137 136 -343 185 -526 126z m365 -2067 c53 -6 113 -16 134 -24 150 -51 362 -263 413 -412 35 -102 44 -448 15 -618 -26 -160 -195 -362 -377 -454 -83 -41 -177 -54 -393 -54 -218 -1 -314 14 -400 59 -186 97 -347 297 -369 460 -27 193 -21 485 13 597 46 153 260 370 415 422 97 32 370 44 549 24z m1038 -2264 c74 -22 141 -79 183 -155 33 -60 36 -71 36 -150 0 -73 -4 -93 -28 -142 -54 -109 -146 -169 -273 -176 -72 -4 -88 -1 -141 23 -68 30 -130 89 -165 155 -17 34 -24 66 -26 127 -4 71 -1 88 24 143 66 148 232 223 390 175z m-1041 -918 c29 -14 85 -68 100 -97 36 -70 24 -162 -28 -225 -81 -99 -228 -100 -314 -1 -126 142 -7 363 182 338 22 -2 49 -9 60 -15z"
       id="path3352"
       style="fill:#2090b5;fill-opacity:1" />
    <path
       d="M6340 4755 l0 -125 95 0 95 0 0 -1245 0 -1245 -95 0 -95 0 0 -125 0 -125 283 2 282 3 3 1493 2 1492 -285 0 -285 0 0 -125z"
       id="path3354"
       style="fill:#2090b5;fill-opacity:1" />
    <path
       d="M14052 4758 l3 -123 93 -3 92 -3 0 -1244 0 -1245 -95 0 -95 0 0 -125 0 -125 285 0 285 0 0 1495 0 1495 -285 0 -286 0 3 -122z"
       id="path3356"
       style="fill:#2090b5;fill-opacity:1" />
    <path
       d="M0 4005 l0 -125 95 0 95 0 0 -870 0 -870 -95 0 -95 0 0 -125 0 -125 283 2 282 3 5 670 6 670 26 97 c31 114 99 250 165 333 55 68 146 133 230 165 81 31 217 38 315 16 210 -47 383 -246 452 -521 31 -121 36 -245 36 -837 l0 -598 204 0 205 0 3 668 4 667 27 100 c69 256 208 434 395 506 70 26 212 36 297 20 249 -47 439 -290 490 -628 12 -78 15 -223 15 -715 l0 -618 206 0 205 0 -4 658 c-3 584 -6 665 -21 732 -58 244 -137 397 -286 554 -90 95 -168 152 -281 206 -149 71 -216 84 -434 84 -168 0 -200 -2 -275 -23 -204 -55 -374 -168 -507 -338 l-41 -52 -41 53 c-145 187 -342 307 -578 352 -123 23 -356 15 -468 -16 -98 -26 -208 -77 -286 -130 l-58 -40 -3 98 -3 97 -282 3 -283 2 0 -125z"
       id="path3358"
       style="fill:#2090b5;fill-opacity:1" />
    <path
       d="M7930 4110 c-288 -61 -532 -227 -702 -479 -248 -364 -246 -876 3 -1243 55 -80 185 -216 269 -279 84 -65 264 -153 362 -178 331 -85 672 -27 938 160 196 138 346 333 419 547 11 34 21 64 21 67 0 3 -99 5 -221 5 l-220 0 -11 -31 c-26 -76 -100 -210 -151 -275 -84 -108 -206 -191 -327 -224 -76 -22 -224 -18 -307 8 -212 65 -377 283 -458 602 -9 36 -18 73 -21 83 -5 16 41 17 861 17 l866 0 15 35 c9 22 14 69 14 129 0 504 -401 972 -909 1061 -117 21 -333 18 -441 -5z m421 -276 c158 -56 302 -192 391 -369 34 -67 76 -203 84 -270 l7 -55 -637 0 -636 0 0 28 c1 44 36 191 64 267 41 107 92 190 161 264 67 71 133 112 224 143 77 25 261 20 342 -8z"
       id="path3360"
       style="fill:#2090b5;fill-opacity:1" />
    <path
       d="M10396 4119 c-401 -59 -759 -361 -891 -752 -90 -269 -65 -610 63 -862 110 -217 342 -435 559 -525 302 -126 645 -115 938 30 209 103 378 265 485 463 37 69 90 196 90 217 0 7 -79 9 -220 8 l-221 -3 -32 -81 c-46 -113 -115 -219 -189 -291 -216 -206 -560 -214 -785 -17 -68 58 -163 201 -201 300 -103 268 -91 639 29 877 127 251 312 377 554 377 280 0 486 -166 606 -485 l20 -55 221 0 220 0 -7 28 c-16 65 -77 196 -127 274 -169 259 -444 440 -747 492 -100 17 -267 19 -365 5z"
       id="path3362"
       style="fill:#2090b5;fill-opacity:1" />
    <path
       d="M11800 3503 c0 -679 3 -729 55 -907 105 -363 357 -612 688 -682 237 -49 498 -12 687 100 l75 44 3 -84 3 -84 299 0 300 0 0 125 0 125 -95 0 -95 0 0 870 0 870 95 0 95 0 0 125 0 125 -300 0 -300 0 0 -622 c0 -662 -5 -748 -50 -908 -61 -214 -189 -369 -344 -415 -253 -76 -482 26 -600 267 -99 200 -106 272 -106 1051 l0 627 -205 0 -205 0 0 -627z"
       id="path3364"
       style="fill:#2090b5;fill-opacity:1" />
    <path
       d="M15689 4120 c-426 -72 -786 -401 -896 -818 -31 -119 -42 -335 -23 -464 44 -301 224 -582 489 -761 364 -246 863 -246 1234 0 146 97 308 275 382 423 33 65 75 175 75 195 0 13 -32 15 -218 15 l-218 0 -32 -77 c-110 -269 -292 -429 -526 -464 -242 -36 -464 94 -594 348 -50 98 -104 250 -117 331 l-7 42 861 0 861 0 16 25 c38 58 23 272 -31 445 -117 373 -448 669 -840 751 -95 20 -323 25 -416 9z m335 -275 c263 -69 464 -327 521 -667 l6 -38 -641 0 -641 0 7 48 c41 288 183 530 366 623 95 48 267 64 382 34z"
       id="path3366"
       style="fill:#2090b5;fill-opacity:1" />
  </g>
  <path
     style="fill:#b6e3f1;stroke:none;stroke-width:1px;stroke-linecap:butt;stroke-linejoin:miter;stroke-opacity:1;fill-opacity:1"
     d="m 645.16191,259.9711 c -10.32145,-9.8e-4 -20.66935,0.19287 -30.90639,1.63563 -6.66897,0.83466 -13.38847,2.26391 -19.28249,5.63156 -11.95931,6.57847 -22.19089,15.96707 -30.95089,26.35711 -6.68208,8.20044 -12.92959,17.33079 -14.94414,27.91309 -1.93549,10.0328 -2.50154,20.28665 -2.6384,30.487 0.007,13.56277 0.20025,27.19752 2.2342,40.63211 1.69036,10.3657 6.99685,19.72955 12.98909,28.19588 8.42604,11.14776 19.00318,20.77614 31.18502,27.67082 8.05089,4.7024 17.29977,6.82998 26.51307,7.62941 14.79251,1.27719 29.67154,0.96408 44.49304,0.44456 11.77216,-0.50174 23.99421,-2.13755 34.20789,-8.44248 14.30466,-8.40131 26.50056,-20.37852 35.2828,-34.44246 4.60391,-7.43652 8.0259,-15.7419 8.8571,-24.51037 2.13246,-18.77268 2.05139,-37.76923 0.39445,-56.57671 -0.75762,-7.50645 -1.52261,-15.25715 -5.09646,-22.04387 -5.87917,-11.63279 -14.78598,-21.43994 -24.32398,-30.19347 -7.71768,-6.81833 -16.16719,-13.27211 -26.04959,-16.55164 -7.45625,-2.03399 -15.20973,-2.69381 -22.87776,-3.44935 -6.34683,-0.46749 -12.72688,-0.35259 -19.08656,-0.38682 z"
     id="path4226"
     inkscape:connector-curvature="0"
     transform="scale(0.8,0.8)" />
  <path
     style="fill:#b6e3f1;stroke:none;stroke-width:1px;stroke-linecap:butt;stroke-linejoin:miter;stroke-opacity:1;fill-opacity:1"
     d="m 788.06068,542.18385 c -13.98744,0.17419 -27.69369,8.04606 -34.50919,20.32888 -1.94078,3.60267 -3.85718,7.34536 -4.67758,11.38202 -0.43355,5.16368 -0.2235,10.37622 0.0707,15.54405 0.6091,6.65955 3.47528,13.00926 7.94737,17.96648 4.69831,5.48316 10.43403,10.19982 17.18869,12.89794 3.42336,1.61035 7.15064,2.64649 10.96303,2.41211 7.88742,0.1456 15.98433,-0.91309 23.04847,-4.62354 9.40143,-4.74827 16.02848,-13.8283 19.3258,-23.66805 1.39228,-5.4694 0.82056,-11.18675 0.91245,-16.77037 0.0645,-3.53651 -0.58589,-7.10269 -2.37293,-10.19324 -3.40075,-7.16821 -8.24434,-13.79256 -14.84033,-18.32579 -6.64923,-4.79286 -14.90813,-7.04458 -23.0565,-6.95049 z"
     id="path4228"
     inkscape:connector-curvature="0"
     transform="scale(0.8,0.8)" />
  <path
     style="fill:#b6e3f1;stroke:none;stroke-width:1px;stroke-linecap:butt;stroke-linejoin:miter;stroke-opacity:1;fill-opacity:1"
     d="m 659.36381,656.72206 c -7.76904,-0.13711 -15.3658,3.66331 -20.12333,9.76518 -6.86645,8.42907 -7.71187,21.41965 -1.3471,30.36328 4.94449,7.1462 13.20872,12.40791 22.09085,12.17439 10.65774,0.30924 20.67778,-7.13431 24.27991,-17.03407 2.65392,-7.13895 2.5237,-15.70839 -1.66492,-22.24444 -3.14193,-4.23947 -7.05192,-7.98979 -11.54907,-10.76596 -3.57204,-1.84646 -7.72508,-2.25658 -11.68634,-2.25838 z"
     id="path4230"
     inkscape:connector-curvature="0"
     transform="scale(0.8,0.8)" />
</svg>
